<?xml version="1.0" encoding="utf-8"?>
<!-- Generator: Adobe Illustrator 20.1.0, SVG Export Plug-In . SVG Version: 6.00 Build 0)  -->
<svg version="1.1" id="Layer_1" xmlns="http://www.w3.org/2000/svg" xmlns:xlink="http://www.w3.org/1999/xlink" x="0px" y="0px"
	 viewBox="0 0 250 46.6" style="enable-background:new 0 0 250 46.6;" xml:space="preserve">
<style type="text/css">
	.st0{fill:#FFFFFF;}
</style>
<g>
	<path class="st0" d="M196.2,29.9c-1.7,0-3.6,0.8-4.8,2.1c-1.8,1.9-4.8,3-8.1,3C176.2,35,171,30,171,23.2c0-6.9,5-11.8,12.1-11.8
		c2.6,0,5,0.7,6.7,2.1c1.6,1.2,3.2,1.9,4.7,1.9c3.3,0,5.6-2.1,5.6-5.1c0-2.7-1.2-4.8-3.8-6.6C193.8,2,189.9,0,182.6,0
		c-6.3,0-12.2,2.4-16.5,6.7c-4.3,4.3-6.7,10.2-6.7,16.5c0,13,10.2,23.2,23.2,23.2c6.7,0,12.8-2.3,16.3-6.1c1.6-1.7,2.3-3.3,2.3-4.9
		C201.2,32.3,199,29.9,196.2,29.9z"/>
	<path class="st0" d="M148.4,1.2c-3.2,0-5.8,2.6-5.8,5.8v33.9c0,3.2,2.6,5.8,5.8,5.8c3.2,0,5.8-2.6,5.8-5.8V6.9
		C154.2,3.8,151.6,1.2,148.4,1.2z"/>
	<path class="st0" d="M135,1.8c-2.8-1.4-6.3-0.3-7.7,2.6l-12,23.7l-12-23.7c-1.4-2.8-4.9-4-7.7-2.6c-2.8,1.4-4,4.9-2.6,7.7
		l17.1,33.9c0,0,0.1,0.1,0.1,0.1c0,0,0.1,0.1,0.1,0.1c0.1,0.1,0.1,0.2,0.2,0.4c0,0,0,0,0,0.1c0.1,0.1,0.2,0.3,0.3,0.4
		c0,0,0.1,0.1,0.1,0.1c0.1,0.1,0.2,0.2,0.3,0.3c0,0,0.1,0.1,0.1,0.1c0.1,0.1,0.3,0.2,0.4,0.3c0,0,0,0,0.1,0c0.1,0.1,0.2,0.2,0.4,0.3
		c0,0,0.1,0,0.1,0.1c0.2,0.1,0.3,0.2,0.5,0.3c0,0,0,0,0,0c0,0,0,0,0,0c0.2,0.1,0.4,0.2,0.6,0.2c0,0,0,0,0.1,0
		c0.2,0.1,0.4,0.1,0.5,0.2c0,0,0.1,0,0.1,0c0.2,0,0.4,0.1,0.5,0.1c0,0,0.1,0,0.1,0c0.2,0,0.4,0,0.6,0c0,0,0,0,0,0c0,0,0,0,0,0
		c0,0,0,0,0,0c0,0,0,0,0,0c0.2,0,0.4,0,0.6,0c0,0,0.1,0,0.1,0c0.2,0,0.4-0.1,0.5-0.1c0,0,0.1,0,0.1,0c0.2,0,0.4-0.1,0.5-0.2
		c0,0,0,0,0.1,0c0.2-0.1,0.4-0.1,0.5-0.2c0,0,0,0,0,0c0,0,0,0,0,0c0.2-0.1,0.3-0.2,0.5-0.3c0,0,0.1,0,0.1-0.1
		c0.1-0.1,0.2-0.2,0.4-0.3c0,0,0,0,0.1-0.1c0.1-0.1,0.3-0.2,0.4-0.3c0,0,0.1-0.1,0.1-0.1c0.1-0.1,0.2-0.2,0.3-0.3
		c0,0,0.1-0.1,0.1-0.1c0.1-0.1,0.2-0.3,0.3-0.4c0,0,0,0,0-0.1c0.1-0.1,0.2-0.2,0.2-0.4c0,0,0.1-0.1,0.1-0.1c0,0,0.1-0.1,0.1-0.1
		l17.1-33.9C139,6.7,137.8,3.2,135,1.8z"/>
	<path class="st0" d="M69.2,0.3C56.4,0.3,46,10.7,46,23.5c0,12.8,10.4,23.2,23.2,23.2s23.2-10.4,23.2-23.2
		C92.3,10.7,81.9,0.3,69.2,0.3z M69.2,35.1c-6.4,0-11.7-5.2-11.7-11.7c0-6.4,5.2-11.7,11.7-11.7S80.8,17,80.8,23.5
		C80.8,29.9,75.6,35.1,69.2,35.1z"/>
	<path class="st0" d="M226.8,0.3c-12.8,0-23.2,10.4-23.2,23.2c0,12.8,10.4,23.2,23.2,23.2c12.8,0,23.2-10.4,23.2-23.2
		C249.9,10.7,239.5,0.3,226.8,0.3z M226.8,35.1c-6.4,0-11.7-5.2-11.7-11.7c0-6.4,5.2-11.7,11.7-11.7c6.4,0,11.7,5.2,11.7,11.7
		C238.4,29.9,233.2,35.1,226.8,35.1z"/>
	<path class="st0" d="M19.5,0H5.7C2.5,0-0.1,2.6-0.1,5.8v34.8c0,3.2,2.6,5.8,5.8,5.8h13.8c12.8,0,23.2-10.4,23.2-23.2
		C42.7,10.4,32.3,0,19.5,0z M19.5,34.9h-8V11.6h8c6.4,0,11.7,5.2,11.7,11.7C31.2,29.6,25.9,34.9,19.5,34.9z"/>
</g>
</svg>
