<?xml version="1.0" encoding="utf-8"?>
<!-- Generator: Adobe Illustrator 20.1.0, SVG Export Plug-In . SVG Version: 6.00 Build 0)  -->
<svg version="1.1" id="Layer_1" xmlns="http://www.w3.org/2000/svg" xmlns:xlink="http://www.w3.org/1999/xlink" x="0px" y="0px"
	 viewBox="0 0 32 32" style="enable-background:new 0 0 32 32;" xml:space="preserve">
<style type="text/css">
	.st0{fill:#4169E1;}
</style>
<path class="st0" d="M28.9,5.7l-2.6-2.6c-2-2-5.1-2-7.1,0L2,20.3c-0.2,0.2-0.4,0.6-0.4,0.9v7.9c0,0.7,0.6,1.3,1.3,1.3h7.9
	c0.3,0,0.7-0.1,0.9-0.4l17.2-17.2C31,10.7,31,7.8,28.9,5.7z M17.4,8.5l2.1,2.1L8.1,22L6,19.9L17.4,8.5z M4.2,27.8v-6l6,6H4.2z
	 M12.1,25.9L10,23.8l11.4-11.4l2.1,2.1L12.1,25.9z M27,11l-1.7,1.7l-6-6L21,5c1-1,2.4-1,3.4,0L27,7.6C28.1,8.6,28.1,9.9,27,11z"/>
</svg>
